<mxfile host="65bd71144e">
    <diagram id="1D3D1IBfSz91m0PoiA4C" name="HLD">
        <mxGraphModel dx="1260" dy="1032" grid="1" gridSize="10" guides="1" tooltips="1" connect="1" arrows="1" fold="1" page="1" pageScale="1" pageWidth="1100" pageHeight="850" background="none" math="0" shadow="0">
            <root>
                <mxCell id="0"/>
                <mxCell id="1" parent="0"/>
                <mxCell id="8" value="&lt;font color=&quot;#3333ff&quot;&gt;AWS Cloud&lt;/font&gt;" style="points=[[0,0],[0.25,0],[0.5,0],[0.75,0],[1,0],[1,0.25],[1,0.5],[1,0.75],[1,1],[0.75,1],[0.5,1],[0.25,1],[0,1],[0,0.75],[0,0.5],[0,0.25]];outlineConnect=0;gradientColor=none;html=1;whiteSpace=wrap;fontSize=12;fontStyle=0;container=1;pointerEvents=0;collapsible=0;recursiveResize=0;shape=mxgraph.aws4.group;grIcon=mxgraph.aws4.group_aws_cloud_alt;strokeColor=#3333FF;fillColor=none;verticalAlign=top;align=left;spacingLeft=30;fontColor=#232F3E;dashed=0;" parent="1" vertex="1">
                    <mxGeometry x="40" y="40" width="920" height="760" as="geometry"/>
                </mxCell>
                <mxCell id="106" value="Region" style="points=[[0,0],[0.25,0],[0.5,0],[0.75,0],[1,0],[1,0.25],[1,0.5],[1,0.75],[1,1],[0.75,1],[0.5,1],[0.25,1],[0,1],[0,0.75],[0,0.5],[0,0.25]];outlineConnect=0;gradientColor=none;html=1;whiteSpace=wrap;fontSize=12;fontStyle=0;container=1;pointerEvents=0;collapsible=0;recursiveResize=0;shape=mxgraph.aws4.group;grIcon=mxgraph.aws4.group_region;strokeColor=#147EBA;fillColor=none;verticalAlign=top;align=left;spacingLeft=30;fontColor=#147EBA;dashed=1;" parent="8" vertex="1">
                    <mxGeometry x="80" y="80" width="760" height="600" as="geometry"/>
                </mxCell>
                <mxCell id="107" value="AWS Account" style="points=[[0,0],[0.25,0],[0.5,0],[0.75,0],[1,0],[1,0.25],[1,0.5],[1,0.75],[1,1],[0.75,1],[0.5,1],[0.25,1],[0,1],[0,0.75],[0,0.5],[0,0.25]];outlineConnect=0;gradientColor=none;html=1;whiteSpace=wrap;fontSize=12;fontStyle=0;container=1;pointerEvents=0;collapsible=0;recursiveResize=0;shape=mxgraph.aws4.group;grIcon=mxgraph.aws4.group_account;strokeColor=#CD2264;fillColor=none;verticalAlign=top;align=left;spacingLeft=30;fontColor=#CD2264;dashed=0;" vertex="1" parent="8">
                    <mxGeometry x="40" y="40" width="840" height="680" as="geometry"/>
                </mxCell>
                <mxCell id="104" value="VPC" style="points=[[0,0],[0.25,0],[0.5,0],[0.75,0],[1,0],[1,0.25],[1,0.5],[1,0.75],[1,1],[0.75,1],[0.5,1],[0.25,1],[0,1],[0,0.75],[0,0.5],[0,0.25]];outlineConnect=0;gradientColor=none;html=1;whiteSpace=wrap;fontSize=12;fontStyle=0;container=1;pointerEvents=0;collapsible=0;recursiveResize=0;shape=mxgraph.aws4.group;grIcon=mxgraph.aws4.group_vpc;strokeColor=#3333FF;fillColor=none;verticalAlign=top;align=left;spacingLeft=30;fontColor=#AAB7B8;dashed=0;" parent="107" vertex="1">
                    <mxGeometry x="200" y="80" width="560" height="520" as="geometry"/>
                </mxCell>
                <mxCell id="97" value="" style="sketch=0;points=[[0,0,0],[0.25,0,0],[0.5,0,0],[0.75,0,0],[1,0,0],[0,1,0],[0.25,1,0],[0.5,1,0],[0.75,1,0],[1,1,0],[0,0.25,0],[0,0.5,0],[0,0.75,0],[1,0.25,0],[1,0.5,0],[1,0.75,0]];outlineConnect=0;fontColor=#232F3E;gradientColor=#4D72F3;gradientDirection=north;fillColor=#3334B9;strokeColor=#ffffff;dashed=0;verticalLabelPosition=bottom;verticalAlign=top;align=center;html=1;fontSize=12;fontStyle=0;aspect=fixed;shape=mxgraph.aws4.resourceIcon;resIcon=mxgraph.aws4.rds;" parent="104" vertex="1">
                    <mxGeometry x="400.5" y="40.5" width="79.5" height="79.5" as="geometry"/>
                </mxCell>
                <mxCell id="110" style="edgeStyle=none;html=1;" edge="1" parent="104" source="69" target="109">
                    <mxGeometry relative="1" as="geometry"/>
                </mxCell>
                <mxCell id="69" value="" style="sketch=0;points=[[0,0,0],[0.25,0,0],[0.5,0,0],[0.75,0,0],[1,0,0],[0,1,0],[0.25,1,0],[0.5,1,0],[0.75,1,0],[1,1,0],[0,0.25,0],[0,0.5,0],[0,0.75,0],[1,0.25,0],[1,0.5,0],[1,0.75,0]];outlineConnect=0;fontColor=#232F3E;gradientColor=#FF4F8B;gradientDirection=north;fillColor=#BC1356;strokeColor=#ffffff;dashed=0;verticalLabelPosition=bottom;verticalAlign=top;align=center;html=1;fontSize=12;fontStyle=0;aspect=fixed;shape=mxgraph.aws4.resourceIcon;resIcon=mxgraph.aws4.sns;" parent="104" vertex="1">
                    <mxGeometry x="39.5" y="160" width="80" height="80" as="geometry"/>
                </mxCell>
                <mxCell id="108" style="edgeStyle=none;html=1;exitX=0.5;exitY=1;exitDx=0;exitDy=0;exitPerimeter=0;entryX=0;entryY=0.5;entryDx=0;entryDy=0;entryPerimeter=0;" edge="1" parent="104" source="92" target="23">
                    <mxGeometry relative="1" as="geometry">
                        <Array as="points">
                            <mxPoint x="320" y="440"/>
                        </Array>
                    </mxGeometry>
                </mxCell>
                <mxCell id="112" style="edgeStyle=none;html=1;entryX=0.5;entryY=1;entryDx=0;entryDy=0;entryPerimeter=0;" edge="1" parent="104" source="92" target="97">
                    <mxGeometry relative="1" as="geometry">
                        <Array as="points">
                            <mxPoint x="440" y="200"/>
                        </Array>
                    </mxGeometry>
                </mxCell>
                <mxCell id="92" value="" style="sketch=0;points=[[0,0,0],[0.25,0,0],[0.5,0,0],[0.75,0,0],[1,0,0],[0,1,0],[0.25,1,0],[0.5,1,0],[0.75,1,0],[1,1,0],[0,0.25,0],[0,0.5,0],[0,0.75,0],[1,0.25,0],[1,0.5,0],[1,0.75,0]];outlineConnect=0;fontColor=#232F3E;gradientColor=#F78E04;gradientDirection=north;fillColor=#D05C17;strokeColor=#ffffff;dashed=0;verticalLabelPosition=bottom;verticalAlign=top;align=center;html=1;fontSize=12;fontStyle=0;aspect=fixed;shape=mxgraph.aws4.resourceIcon;resIcon=mxgraph.aws4.lambda;" parent="104" vertex="1">
                    <mxGeometry x="279" y="160" width="80" height="80" as="geometry"/>
                </mxCell>
                <mxCell id="23" value="" style="sketch=0;points=[[0,0,0],[0.25,0,0],[0.5,0,0],[0.75,0,0],[1,0,0],[0,1,0],[0.25,1,0],[0.5,1,0],[0.75,1,0],[1,1,0],[0,0.25,0],[0,0.5,0],[0,0.75,0],[1,0.25,0],[1,0.5,0],[1,0.75,0]];points=[[0,0,0],[0.25,0,0],[0.5,0,0],[0.75,0,0],[1,0,0],[0,1,0],[0.25,1,0],[0.5,1,0],[0.75,1,0],[1,1,0],[0,0.25,0],[0,0.5,0],[0,0.75,0],[1,0.25,0],[1,0.5,0],[1,0.75,0]];outlineConnect=0;fontColor=#232F3E;gradientColor=#F34482;gradientDirection=north;fillColor=#BC1356;strokeColor=#ffffff;dashed=0;verticalLabelPosition=bottom;verticalAlign=top;align=center;html=1;fontSize=12;fontStyle=0;aspect=fixed;shape=mxgraph.aws4.resourceIcon;resIcon=mxgraph.aws4.cloudwatch_2;" parent="104" vertex="1">
                    <mxGeometry x="400.5" y="400" width="80.5" height="80.5" as="geometry"/>
                </mxCell>
                <mxCell id="27" value="" style="sketch=0;points=[[0,0,0],[0.25,0,0],[0.5,0,0],[0.75,0,0],[1,0,0],[0,1,0],[0.25,1,0],[0.5,1,0],[0.75,1,0],[1,1,0],[0,0.25,0],[0,0.5,0],[0,0.75,0],[1,0.25,0],[1,0.5,0],[1,0.75,0]];outlineConnect=0;fontColor=#232F3E;gradientColor=#F54749;gradientDirection=north;fillColor=#C7131F;strokeColor=#ffffff;dashed=0;verticalLabelPosition=bottom;verticalAlign=top;align=center;html=1;fontSize=12;fontStyle=0;aspect=fixed;shape=mxgraph.aws4.resourceIcon;resIcon=mxgraph.aws4.secrets_manager;" parent="104" vertex="1">
                    <mxGeometry x="400" y="280.5" width="81" height="81" as="geometry"/>
                </mxCell>
                <mxCell id="101" style="edgeStyle=none;html=1;entryX=0;entryY=0.5;entryDx=0;entryDy=0;entryPerimeter=0;" parent="104" source="92" target="27" edge="1">
                    <mxGeometry relative="1" as="geometry">
                        <Array as="points">
                            <mxPoint x="319" y="320"/>
                        </Array>
                    </mxGeometry>
                </mxCell>
                <mxCell id="111" style="edgeStyle=none;html=1;" edge="1" parent="104" source="109" target="92">
                    <mxGeometry relative="1" as="geometry"/>
                </mxCell>
                <mxCell id="109" value="" style="sketch=0;points=[[0,0,0],[0.25,0,0],[0.5,0,0],[0.75,0,0],[1,0,0],[0,1,0],[0.25,1,0],[0.5,1,0],[0.75,1,0],[1,1,0],[0,0.25,0],[0,0.5,0],[0,0.75,0],[1,0.25,0],[1,0.5,0],[1,0.75,0]];outlineConnect=0;fontColor=#232F3E;gradientColor=#FF4F8B;gradientDirection=north;fillColor=#BC1356;strokeColor=#ffffff;dashed=0;verticalLabelPosition=bottom;verticalAlign=top;align=center;html=1;fontSize=12;fontStyle=0;aspect=fixed;shape=mxgraph.aws4.resourceIcon;resIcon=mxgraph.aws4.sqs;" vertex="1" parent="104">
                    <mxGeometry x="160" y="160" width="80" height="80" as="geometry"/>
                </mxCell>
                <mxCell id="9" value="" style="sketch=0;points=[[0,0,0],[0.25,0,0],[0.5,0,0],[0.75,0,0],[1,0,0],[0,1,0],[0.25,1,0],[0.5,1,0],[0.75,1,0],[1,1,0],[0,0.25,0],[0,0.5,0],[0,0.75,0],[1,0.25,0],[1,0.5,0],[1,0.75,0]];outlineConnect=0;fontColor=#232F3E;gradientColor=#60A337;gradientDirection=north;fillColor=#277116;strokeColor=#ffffff;dashed=0;verticalLabelPosition=bottom;verticalAlign=top;align=center;html=1;fontSize=12;fontStyle=0;aspect=fixed;shape=mxgraph.aws4.resourceIcon;resIcon=mxgraph.aws4.s3;" parent="107" vertex="1">
                    <mxGeometry x="80" y="120" width="80" height="80" as="geometry"/>
                </mxCell>
                <mxCell id="105" style="edgeStyle=none;html=1;exitX=1;exitY=0.5;exitDx=0;exitDy=0;exitPerimeter=0;dashed=1;" parent="107" source="9" target="97" edge="1">
                    <mxGeometry relative="1" as="geometry"/>
                </mxCell>
                <mxCell id="K2dcfroYG_MIJpX2eGeK-98" style="edgeStyle=none;html=1;entryX=0;entryY=0.5;entryDx=0;entryDy=0;entryPerimeter=0;" parent="107" source="9" target="69" edge="1">
                    <mxGeometry relative="1" as="geometry">
                        <Array as="points">
                            <mxPoint x="120" y="280"/>
                        </Array>
                    </mxGeometry>
                </mxCell>
            </root>
        </mxGraphModel>
    </diagram>
    <diagram id="Exk7r7IMc3OPcMHaqdEw" name="DB">
        <mxGraphModel dx="890" dy="1032" grid="1" gridSize="10" guides="1" tooltips="1" connect="1" arrows="1" fold="1" page="1" pageScale="1" pageWidth="1654" pageHeight="1169" math="0" shadow="0">
            <root>
                <mxCell id="0"/>
                <mxCell id="1" parent="0"/>
                <mxCell id="_zO412civxkj6S0ELgT4-65" style="edgeStyle=none;html=1;dashed=1;dashPattern=12 12;fontColor=#3333FF;" parent="1" source="_zO412civxkj6S0ELgT4-1" target="_zO412civxkj6S0ELgT4-55" edge="1">
                    <mxGeometry relative="1" as="geometry">
                        <Array as="points">
                            <mxPoint x="120" y="220"/>
                            <mxPoint x="680" y="220"/>
                        </Array>
                    </mxGeometry>
                </mxCell>
                <mxCell id="_zO412civxkj6S0ELgT4-1" value="&lt;font color=&quot;#3333ff&quot;&gt;batch_document&lt;br&gt;&lt;br&gt;&lt;/font&gt;" style="sketch=0;outlineConnect=0;fontColor=#232F3E;gradientColor=none;fillColor=#3333FF;strokeColor=none;dashed=0;verticalLabelPosition=bottom;verticalAlign=top;align=center;html=1;fontSize=12;fontStyle=0;aspect=fixed;pointerEvents=1;shape=mxgraph.aws4.table;" parent="1" vertex="1">
                    <mxGeometry x="80" y="280" width="80" height="80" as="geometry"/>
                </mxCell>
                <mxCell id="_zO412civxkj6S0ELgT4-63" style="edgeStyle=none;html=1;fontColor=#3333FF;dashed=1;dashPattern=12 12;" parent="1" source="_zO412civxkj6S0ELgT4-2" target="_zO412civxkj6S0ELgT4-55" edge="1">
                    <mxGeometry relative="1" as="geometry">
                        <Array as="points">
                            <mxPoint x="280" y="220"/>
                            <mxPoint x="680" y="220"/>
                        </Array>
                    </mxGeometry>
                </mxCell>
                <mxCell id="_zO412civxkj6S0ELgT4-64" value="SELECT FROM" style="edgeLabel;html=1;align=center;verticalAlign=middle;resizable=0;points=[];fontColor=#3333FF;" parent="_zO412civxkj6S0ELgT4-63" vertex="1" connectable="0">
                    <mxGeometry x="0.3161" y="-2" relative="1" as="geometry">
                        <mxPoint as="offset"/>
                    </mxGeometry>
                </mxCell>
                <mxCell id="_zO412civxkj6S0ELgT4-2" value="&lt;font color=&quot;#3333ff&quot;&gt;batch_link&lt;/font&gt;" style="sketch=0;outlineConnect=0;fontColor=#232F3E;gradientColor=none;fillColor=#3333FF;strokeColor=none;dashed=0;verticalLabelPosition=bottom;verticalAlign=top;align=center;html=1;fontSize=12;fontStyle=0;aspect=fixed;pointerEvents=1;shape=mxgraph.aws4.table;" parent="1" vertex="1">
                    <mxGeometry x="240" y="280" width="80" height="80" as="geometry"/>
                </mxCell>
                <mxCell id="_zO412civxkj6S0ELgT4-3" value="" style="endArrow=none;dashed=1;html=1;fontColor=#3333FF;" parent="1" edge="1">
                    <mxGeometry width="50" height="50" relative="1" as="geometry">
                        <mxPoint x="40" y="440" as="sourcePoint"/>
                        <mxPoint x="1110" y="440" as="targetPoint"/>
                    </mxGeometry>
                </mxCell>
                <mxCell id="_zO412civxkj6S0ELgT4-5" value="L1" style="edgeLabel;html=1;align=center;verticalAlign=middle;resizable=0;points=[];fontColor=#3333FF;" parent="_zO412civxkj6S0ELgT4-3" vertex="1" connectable="0">
                    <mxGeometry x="-0.8072" y="1" relative="1" as="geometry">
                        <mxPoint as="offset"/>
                    </mxGeometry>
                </mxCell>
                <mxCell id="_zO412civxkj6S0ELgT4-4" value="" style="endArrow=none;dashed=1;html=1;fontColor=#3333FF;" parent="1" edge="1">
                    <mxGeometry width="50" height="50" relative="1" as="geometry">
                        <mxPoint x="40" y="240" as="sourcePoint"/>
                        <mxPoint x="1120" y="240" as="targetPoint"/>
                    </mxGeometry>
                </mxCell>
                <mxCell id="_zO412civxkj6S0ELgT4-17" value="L3" style="edgeLabel;html=1;align=center;verticalAlign=middle;resizable=0;points=[];fontColor=#3333FF;" parent="_zO412civxkj6S0ELgT4-4" vertex="1" connectable="0">
                    <mxGeometry x="-0.6308" y="2" relative="1" as="geometry">
                        <mxPoint as="offset"/>
                    </mxGeometry>
                </mxCell>
                <mxCell id="_zO412civxkj6S0ELgT4-6" value="&lt;font color=&quot;#3333ff&quot;&gt;batch_document&lt;br&gt;&lt;br&gt;&lt;/font&gt;" style="sketch=0;outlineConnect=0;fontColor=#232F3E;gradientColor=none;fillColor=#3333FF;strokeColor=none;dashed=0;verticalLabelPosition=bottom;verticalAlign=top;align=center;html=1;fontSize=12;fontStyle=0;aspect=fixed;pointerEvents=1;shape=mxgraph.aws4.table;" parent="1" vertex="1">
                    <mxGeometry x="80" y="80" width="80" height="80" as="geometry"/>
                </mxCell>
                <mxCell id="_zO412civxkj6S0ELgT4-7" value="&lt;font color=&quot;#3333ff&quot;&gt;batch_link&lt;/font&gt;" style="sketch=0;outlineConnect=0;fontColor=#232F3E;gradientColor=none;fillColor=#3333FF;strokeColor=none;dashed=0;verticalLabelPosition=bottom;verticalAlign=top;align=center;html=1;fontSize=12;fontStyle=0;aspect=fixed;pointerEvents=1;shape=mxgraph.aws4.table;" parent="1" vertex="1">
                    <mxGeometry x="200" y="80" width="80" height="80" as="geometry"/>
                </mxCell>
                <mxCell id="_zO412civxkj6S0ELgT4-8" value="&lt;font color=&quot;#3333ff&quot;&gt;batch_document_link&lt;br&gt;&lt;br&gt;&lt;/font&gt;" style="sketch=0;outlineConnect=0;fontColor=#232F3E;gradientColor=none;fillColor=#3333FF;strokeColor=none;dashed=0;verticalLabelPosition=bottom;verticalAlign=top;align=center;html=1;fontSize=12;fontStyle=0;aspect=fixed;pointerEvents=1;shape=mxgraph.aws4.table;" parent="1" vertex="1">
                    <mxGeometry x="320" y="80" width="80" height="80" as="geometry"/>
                </mxCell>
                <mxCell id="_zO412civxkj6S0ELgT4-9" value="&lt;font color=&quot;#3333ff&quot;&gt;batch_state&lt;br&gt;&lt;br&gt;&lt;/font&gt;" style="sketch=0;outlineConnect=0;fontColor=#232F3E;gradientColor=none;fillColor=#3333FF;strokeColor=none;dashed=0;verticalLabelPosition=bottom;verticalAlign=top;align=center;html=1;fontSize=12;fontStyle=0;aspect=fixed;pointerEvents=1;shape=mxgraph.aws4.table;" parent="1" vertex="1">
                    <mxGeometry x="440" y="80" width="80" height="80" as="geometry"/>
                </mxCell>
                <mxCell id="_zO412civxkj6S0ELgT4-26" style="edgeStyle=none;html=1;fontColor=#3333FF;" parent="1" source="_zO412civxkj6S0ELgT4-14" target="_zO412civxkj6S0ELgT4-18" edge="1">
                    <mxGeometry relative="1" as="geometry"/>
                </mxCell>
                <mxCell id="_zO412civxkj6S0ELgT4-14" value="&lt;font color=&quot;#3333ff&quot;&gt;batch_load&lt;br&gt;&lt;/font&gt;" style="sketch=0;outlineConnect=0;fontColor=#232F3E;gradientColor=none;fillColor=#3333FF;strokeColor=none;dashed=0;verticalLabelPosition=bottom;verticalAlign=top;align=center;html=1;fontSize=12;fontStyle=0;aspect=fixed;pointerEvents=1;shape=mxgraph.aws4.table;" parent="1" vertex="1">
                    <mxGeometry x="80" y="501" width="80" height="80" as="geometry"/>
                </mxCell>
                <mxCell id="_zO412civxkj6S0ELgT4-35" style="edgeStyle=none;html=1;fontColor=#3333FF;" parent="1" source="_zO412civxkj6S0ELgT4-15" target="_zO412civxkj6S0ELgT4-32" edge="1">
                    <mxGeometry relative="1" as="geometry"/>
                </mxCell>
                <mxCell id="_zO412civxkj6S0ELgT4-43" style="edgeStyle=none;html=1;fontColor=#3333FF;" parent="1" source="_zO412civxkj6S0ELgT4-15" target="_zO412civxkj6S0ELgT4-40" edge="1">
                    <mxGeometry relative="1" as="geometry">
                        <Array as="points">
                            <mxPoint x="280" y="481"/>
                            <mxPoint x="480" y="481"/>
                            <mxPoint x="590" y="481"/>
                        </Array>
                    </mxGeometry>
                </mxCell>
                <mxCell id="_zO412civxkj6S0ELgT4-44" value="TRIGGER CHANGE STATUS" style="edgeLabel;html=1;align=center;verticalAlign=middle;resizable=0;points=[];fontColor=#3333FF;" parent="_zO412civxkj6S0ELgT4-43" vertex="1" connectable="0">
                    <mxGeometry x="-0.1403" y="1" relative="1" as="geometry">
                        <mxPoint x="79" as="offset"/>
                    </mxGeometry>
                </mxCell>
                <mxCell id="_zO412civxkj6S0ELgT4-15" value="&lt;font color=&quot;#3333ff&quot;&gt;batch_load_L1&lt;br&gt;&lt;/font&gt;" style="sketch=0;outlineConnect=0;fontColor=#232F3E;gradientColor=none;fillColor=#3333FF;strokeColor=none;dashed=0;verticalLabelPosition=bottom;verticalAlign=top;align=center;html=1;fontSize=12;fontStyle=0;aspect=fixed;pointerEvents=1;shape=mxgraph.aws4.table;" parent="1" vertex="1">
                    <mxGeometry x="240" y="501" width="80" height="80" as="geometry"/>
                </mxCell>
                <mxCell id="_zO412civxkj6S0ELgT4-52" style="edgeStyle=none;html=1;fontColor=#3333FF;" parent="1" source="_zO412civxkj6S0ELgT4-16" target="_zO412civxkj6S0ELgT4-49" edge="1">
                    <mxGeometry relative="1" as="geometry"/>
                </mxCell>
                <mxCell id="_zO412civxkj6S0ELgT4-71" style="edgeStyle=none;html=1;fontColor=#3333FF;" parent="1" source="_zO412civxkj6S0ELgT4-16" target="_zO412civxkj6S0ELgT4-70" edge="1">
                    <mxGeometry relative="1" as="geometry">
                        <Array as="points">
                            <mxPoint x="760" y="481"/>
                            <mxPoint x="1040" y="481"/>
                        </Array>
                    </mxGeometry>
                </mxCell>
                <mxCell id="_zO412civxkj6S0ELgT4-16" value="&lt;font color=&quot;#3333ff&quot;&gt;batch_load_L3&lt;br&gt;&lt;/font&gt;" style="sketch=0;outlineConnect=0;fontColor=#232F3E;gradientColor=none;fillColor=#3333FF;strokeColor=none;dashed=0;verticalLabelPosition=bottom;verticalAlign=top;align=center;html=1;fontSize=12;fontStyle=0;aspect=fixed;pointerEvents=1;shape=mxgraph.aws4.table;" parent="1" vertex="1">
                    <mxGeometry x="720" y="501" width="80" height="80" as="geometry"/>
                </mxCell>
                <mxCell id="_zO412civxkj6S0ELgT4-19" style="edgeStyle=none;html=1;fontColor=#3333FF;" parent="1" source="_zO412civxkj6S0ELgT4-18" target="_zO412civxkj6S0ELgT4-14" edge="1">
                    <mxGeometry relative="1" as="geometry"/>
                </mxCell>
                <mxCell id="_zO412civxkj6S0ELgT4-21" value="INSERT ROW" style="edgeLabel;html=1;align=center;verticalAlign=middle;resizable=0;points=[];fontColor=#3333FF;" parent="_zO412civxkj6S0ELgT4-19" vertex="1" connectable="0">
                    <mxGeometry x="-0.3792" relative="1" as="geometry">
                        <mxPoint y="-15" as="offset"/>
                    </mxGeometry>
                </mxCell>
                <mxCell id="_zO412civxkj6S0ELgT4-27" value="RETURN ROW_ID" style="edgeLabel;html=1;align=center;verticalAlign=middle;resizable=0;points=[];fontColor=#3333FF;" parent="_zO412civxkj6S0ELgT4-19" vertex="1" connectable="0">
                    <mxGeometry x="-0.5133" y="1" relative="1" as="geometry">
                        <mxPoint as="offset"/>
                    </mxGeometry>
                </mxCell>
                <mxCell id="_zO412civxkj6S0ELgT4-18" value="&lt;font color=&quot;#3333ff&quot;&gt;fn get_batch_load_id()&lt;/font&gt;" style="sketch=0;outlineConnect=0;fontColor=#232F3E;gradientColor=none;fillColor=#3333FF;strokeColor=none;dashed=0;verticalLabelPosition=bottom;verticalAlign=top;align=center;html=1;fontSize=12;fontStyle=0;aspect=fixed;pointerEvents=1;shape=mxgraph.aws4.item;" parent="1" vertex="1">
                    <mxGeometry x="80" y="661" width="80" height="80" as="geometry"/>
                </mxCell>
                <mxCell id="_zO412civxkj6S0ELgT4-23" style="edgeStyle=none;html=1;fontColor=#3333FF;" parent="1" source="_zO412civxkj6S0ELgT4-22" target="_zO412civxkj6S0ELgT4-18" edge="1">
                    <mxGeometry relative="1" as="geometry"/>
                </mxCell>
                <mxCell id="_zO412civxkj6S0ELgT4-28" value="CALL FUNCTION" style="edgeLabel;html=1;align=center;verticalAlign=middle;resizable=0;points=[];fontColor=#3333FF;" parent="_zO412civxkj6S0ELgT4-23" vertex="1" connectable="0">
                    <mxGeometry x="-0.2811" relative="1" as="geometry">
                        <mxPoint as="offset"/>
                    </mxGeometry>
                </mxCell>
                <mxCell id="_zO412civxkj6S0ELgT4-29" value="RECEIVE load_id" style="edgeLabel;html=1;align=center;verticalAlign=middle;resizable=0;points=[];fontColor=#3333FF;" parent="_zO412civxkj6S0ELgT4-23" vertex="1" connectable="0">
                    <mxGeometry x="-0.52" relative="1" as="geometry">
                        <mxPoint as="offset"/>
                    </mxGeometry>
                </mxCell>
                <mxCell id="_zO412civxkj6S0ELgT4-25" value="" style="edgeStyle=none;html=1;fontColor=#3333FF;" parent="1" source="_zO412civxkj6S0ELgT4-22" target="_zO412civxkj6S0ELgT4-24" edge="1">
                    <mxGeometry relative="1" as="geometry"/>
                </mxCell>
                <mxCell id="_zO412civxkj6S0ELgT4-30" value="PASS load_id" style="edgeLabel;html=1;align=center;verticalAlign=middle;resizable=0;points=[];fontColor=#3333FF;" parent="_zO412civxkj6S0ELgT4-25" vertex="1" connectable="0">
                    <mxGeometry x="0.2914" relative="1" as="geometry">
                        <mxPoint x="-12" as="offset"/>
                    </mxGeometry>
                </mxCell>
                <mxCell id="_zO412civxkj6S0ELgT4-22" value="" style="sketch=0;points=[[0,0,0],[0.25,0,0],[0.5,0,0],[0.75,0,0],[1,0,0],[0,1,0],[0.25,1,0],[0.5,1,0],[0.75,1,0],[1,1,0],[0,0.25,0],[0,0.5,0],[0,0.75,0],[1,0.25,0],[1,0.5,0],[1,0.75,0]];outlineConnect=0;fontColor=#232F3E;gradientColor=#F78E04;gradientDirection=north;fillColor=#D05C17;strokeColor=#ffffff;dashed=0;verticalLabelPosition=bottom;verticalAlign=top;align=center;html=1;fontSize=12;fontStyle=0;aspect=fixed;shape=mxgraph.aws4.resourceIcon;resIcon=mxgraph.aws4.lambda;" parent="1" vertex="1">
                    <mxGeometry x="80" y="880" width="80" height="80" as="geometry"/>
                </mxCell>
                <mxCell id="_zO412civxkj6S0ELgT4-72" style="edgeStyle=none;html=1;fontColor=#3333FF;" parent="1" source="_zO412civxkj6S0ELgT4-24" target="_zO412civxkj6S0ELgT4-32" edge="1">
                    <mxGeometry relative="1" as="geometry"/>
                </mxCell>
                <mxCell id="_zO412civxkj6S0ELgT4-24" value="" style="sketch=0;points=[[0,0,0],[0.25,0,0],[0.5,0,0],[0.75,0,0],[1,0,0],[0,1,0],[0.25,1,0],[0.5,1,0],[0.75,1,0],[1,1,0],[0,0.25,0],[0,0.5,0],[0,0.75,0],[1,0.25,0],[1,0.5,0],[1,0.75,0]];outlineConnect=0;fontColor=#232F3E;gradientColor=#F78E04;gradientDirection=north;fillColor=#D05C17;strokeColor=#ffffff;dashed=0;verticalLabelPosition=bottom;verticalAlign=top;align=center;html=1;fontSize=12;fontStyle=0;aspect=fixed;shape=mxgraph.aws4.resourceIcon;resIcon=mxgraph.aws4.lambda;" parent="1" vertex="1">
                    <mxGeometry x="240" y="880" width="80" height="80" as="geometry"/>
                </mxCell>
                <mxCell id="_zO412civxkj6S0ELgT4-33" style="edgeStyle=none;html=1;fontColor=#3333FF;" parent="1" source="_zO412civxkj6S0ELgT4-32" target="_zO412civxkj6S0ELgT4-15" edge="1">
                    <mxGeometry relative="1" as="geometry"/>
                </mxCell>
                <mxCell id="_zO412civxkj6S0ELgT4-34" value="INSERT ROW" style="edgeLabel;html=1;align=center;verticalAlign=middle;resizable=0;points=[];fontColor=#3333FF;" parent="_zO412civxkj6S0ELgT4-33" vertex="1" connectable="0">
                    <mxGeometry x="-0.2483" y="-1" relative="1" as="geometry">
                        <mxPoint as="offset"/>
                    </mxGeometry>
                </mxCell>
                <mxCell id="_zO412civxkj6S0ELgT4-36" value="RETURN ROW_ID (load_id)" style="edgeLabel;html=1;align=center;verticalAlign=middle;resizable=0;points=[];fontColor=#3333FF;" parent="_zO412civxkj6S0ELgT4-33" vertex="1" connectable="0">
                    <mxGeometry x="-0.5759" y="-2" relative="1" as="geometry">
                        <mxPoint as="offset"/>
                    </mxGeometry>
                </mxCell>
                <mxCell id="_zO412civxkj6S0ELgT4-37" style="edgeStyle=none;html=1;fontColor=#3333FF;" parent="1" source="_zO412civxkj6S0ELgT4-32" target="_zO412civxkj6S0ELgT4-2" edge="1">
                    <mxGeometry relative="1" as="geometry">
                        <Array as="points">
                            <mxPoint x="400" y="701"/>
                            <mxPoint x="400" y="320"/>
                        </Array>
                    </mxGeometry>
                </mxCell>
                <mxCell id="_zO412civxkj6S0ELgT4-38" value="CALL LOAD FROM S3 ENRICH WITH load_id)" style="edgeLabel;html=1;align=center;verticalAlign=middle;resizable=0;points=[];fontColor=#3333FF;" parent="_zO412civxkj6S0ELgT4-37" vertex="1" connectable="0">
                    <mxGeometry x="-0.3432" relative="1" as="geometry">
                        <mxPoint y="-169" as="offset"/>
                    </mxGeometry>
                </mxCell>
                <mxCell id="_zO412civxkj6S0ELgT4-39" style="edgeStyle=none;html=1;fontColor=#3333FF;" parent="1" source="_zO412civxkj6S0ELgT4-32" target="_zO412civxkj6S0ELgT4-1" edge="1">
                    <mxGeometry relative="1" as="geometry">
                        <Array as="points">
                            <mxPoint x="400" y="701"/>
                            <mxPoint x="400" y="400"/>
                            <mxPoint x="120" y="400"/>
                        </Array>
                    </mxGeometry>
                </mxCell>
                <mxCell id="_zO412civxkj6S0ELgT4-41" style="edgeStyle=none;html=1;fontColor=#3333FF;" parent="1" source="_zO412civxkj6S0ELgT4-32" target="_zO412civxkj6S0ELgT4-15" edge="1">
                    <mxGeometry relative="1" as="geometry">
                        <Array as="points">
                            <mxPoint x="360" y="701"/>
                            <mxPoint x="360" y="541"/>
                        </Array>
                    </mxGeometry>
                </mxCell>
                <mxCell id="_zO412civxkj6S0ELgT4-42" value="NOTIFY &lt;br&gt;STATUS" style="edgeLabel;html=1;align=center;verticalAlign=middle;resizable=0;points=[];fontColor=#3333FF;" parent="_zO412civxkj6S0ELgT4-41" vertex="1" connectable="0">
                    <mxGeometry x="0.3458" y="1" relative="1" as="geometry">
                        <mxPoint y="25" as="offset"/>
                    </mxGeometry>
                </mxCell>
                <mxCell id="_zO412civxkj6S0ELgT4-32" value="&lt;font color=&quot;#3333ff&quot;&gt;fn batch_load_file_l1()&lt;/font&gt;" style="sketch=0;outlineConnect=0;fontColor=#232F3E;gradientColor=none;fillColor=#3333FF;strokeColor=none;dashed=0;verticalLabelPosition=bottom;verticalAlign=top;align=center;html=1;fontSize=12;fontStyle=0;aspect=fixed;pointerEvents=1;shape=mxgraph.aws4.item;" parent="1" vertex="1">
                    <mxGeometry x="240" y="661" width="80" height="80" as="geometry"/>
                </mxCell>
                <mxCell id="r20hJQWjGVUqrG21Jqq5-1" style="edgeStyle=none;html=1;" edge="1" parent="1" source="_zO412civxkj6S0ELgT4-40" target="_zO412civxkj6S0ELgT4-45">
                    <mxGeometry relative="1" as="geometry"/>
                </mxCell>
                <mxCell id="_zO412civxkj6S0ELgT4-40" value="&lt;font color=&quot;#3333ff&quot;&gt;trigger batch_load_L1_status&lt;/font&gt;" style="sketch=0;outlineConnect=0;fontColor=#232F3E;gradientColor=none;fillColor=#3333FF;strokeColor=none;dashed=0;verticalLabelPosition=bottom;verticalAlign=top;align=center;html=1;fontSize=12;fontStyle=0;aspect=fixed;pointerEvents=1;shape=mxgraph.aws4.item;" parent="1" vertex="1">
                    <mxGeometry x="550" y="501" width="80" height="80" as="geometry"/>
                </mxCell>
                <mxCell id="_zO412civxkj6S0ELgT4-46" style="edgeStyle=none;html=1;fontColor=#3333FF;dashed=1;" parent="1" source="_zO412civxkj6S0ELgT4-45" target="_zO412civxkj6S0ELgT4-14" edge="1">
                    <mxGeometry relative="1" as="geometry">
                        <Array as="points">
                            <mxPoint x="590" y="801"/>
                            <mxPoint x="40" y="801"/>
                            <mxPoint x="40" y="541"/>
                        </Array>
                    </mxGeometry>
                </mxCell>
                <mxCell id="KJc-w5ttBFHWrFIWMZcB-1" value="SELECT" style="edgeLabel;html=1;align=center;verticalAlign=middle;resizable=0;points=[];fontColor=#3333FF;" parent="_zO412civxkj6S0ELgT4-46" vertex="1" connectable="0">
                    <mxGeometry x="-0.6315" y="1" relative="1" as="geometry">
                        <mxPoint x="1" as="offset"/>
                    </mxGeometry>
                </mxCell>
                <mxCell id="_zO412civxkj6S0ELgT4-47" style="edgeStyle=none;html=1;dashed=1;fontColor=#3333FF;" parent="1" source="_zO412civxkj6S0ELgT4-45" target="_zO412civxkj6S0ELgT4-15" edge="1">
                    <mxGeometry relative="1" as="geometry">
                        <Array as="points">
                            <mxPoint x="460" y="701"/>
                            <mxPoint x="460" y="541"/>
                        </Array>
                    </mxGeometry>
                </mxCell>
                <mxCell id="KJc-w5ttBFHWrFIWMZcB-2" value="SELECT" style="edgeLabel;html=1;align=center;verticalAlign=middle;resizable=0;points=[];fontColor=#3333FF;" parent="_zO412civxkj6S0ELgT4-47" vertex="1" connectable="0">
                    <mxGeometry x="-0.3402" y="1" relative="1" as="geometry">
                        <mxPoint as="offset"/>
                    </mxGeometry>
                </mxCell>
                <mxCell id="_zO412civxkj6S0ELgT4-48" style="edgeStyle=none;html=1;fontColor=#3333FF;" parent="1" source="_zO412civxkj6S0ELgT4-45" target="_zO412civxkj6S0ELgT4-49" edge="1">
                    <mxGeometry relative="1" as="geometry">
                        <Array as="points">
                            <mxPoint x="720" y="701"/>
                        </Array>
                    </mxGeometry>
                </mxCell>
                <mxCell id="_zO412civxkj6S0ELgT4-45" value="&lt;font color=&quot;#3333ff&quot;&gt;fn check_batch_load_l1_status&lt;/font&gt;" style="sketch=0;outlineConnect=0;fontColor=#232F3E;gradientColor=none;fillColor=#3333FF;strokeColor=none;dashed=0;verticalLabelPosition=bottom;verticalAlign=top;align=center;html=1;fontSize=12;fontStyle=0;aspect=fixed;pointerEvents=1;shape=mxgraph.aws4.item;" parent="1" vertex="1">
                    <mxGeometry x="550" y="661" width="80" height="80" as="geometry"/>
                </mxCell>
                <mxCell id="_zO412civxkj6S0ELgT4-50" style="edgeStyle=none;html=1;fontColor=#3333FF;" parent="1" source="_zO412civxkj6S0ELgT4-49" target="_zO412civxkj6S0ELgT4-16" edge="1">
                    <mxGeometry relative="1" as="geometry"/>
                </mxCell>
                <mxCell id="_zO412civxkj6S0ELgT4-51" value="INSERT ROW" style="edgeLabel;html=1;align=center;verticalAlign=middle;resizable=0;points=[];fontColor=#3333FF;" parent="_zO412civxkj6S0ELgT4-50" vertex="1" connectable="0">
                    <mxGeometry x="-0.2559" y="-2" relative="1" as="geometry">
                        <mxPoint as="offset"/>
                    </mxGeometry>
                </mxCell>
                <mxCell id="_zO412civxkj6S0ELgT4-53" value="RETURN ROW_ID(load_id)" style="edgeLabel;html=1;align=center;verticalAlign=middle;resizable=0;points=[];fontColor=#3333FF;" parent="_zO412civxkj6S0ELgT4-50" vertex="1" connectable="0">
                    <mxGeometry x="-0.5794" y="-2" relative="1" as="geometry">
                        <mxPoint as="offset"/>
                    </mxGeometry>
                </mxCell>
                <mxCell id="_zO412civxkj6S0ELgT4-58" style="edgeStyle=none;html=1;fontColor=#3333FF;" parent="1" source="_zO412civxkj6S0ELgT4-49" target="_zO412civxkj6S0ELgT4-55" edge="1">
                    <mxGeometry relative="1" as="geometry">
                        <Array as="points">
                            <mxPoint x="920" y="701"/>
                            <mxPoint x="920" y="120"/>
                        </Array>
                    </mxGeometry>
                </mxCell>
                <mxCell id="_zO412civxkj6S0ELgT4-59" value="CALL" style="edgeLabel;html=1;align=center;verticalAlign=middle;resizable=0;points=[];fontColor=#3333FF;" parent="_zO412civxkj6S0ELgT4-58" vertex="1" connectable="0">
                    <mxGeometry x="-0.2773" y="-3" relative="1" as="geometry">
                        <mxPoint x="-3" y="-122" as="offset"/>
                    </mxGeometry>
                </mxCell>
                <mxCell id="_zO412civxkj6S0ELgT4-66" style="edgeStyle=none;html=1;fontColor=#3333FF;" parent="1" source="_zO412civxkj6S0ELgT4-49" target="_zO412civxkj6S0ELgT4-16" edge="1">
                    <mxGeometry relative="1" as="geometry">
                        <Array as="points">
                            <mxPoint x="840" y="701"/>
                            <mxPoint x="840" y="541"/>
                        </Array>
                    </mxGeometry>
                </mxCell>
                <mxCell id="_zO412civxkj6S0ELgT4-69" value="NOTIFY &lt;br&gt;SATUS" style="edgeLabel;html=1;align=center;verticalAlign=middle;resizable=0;points=[];fontColor=#3333FF;" parent="_zO412civxkj6S0ELgT4-66" vertex="1" connectable="0">
                    <mxGeometry x="-0.1931" y="-2" relative="1" as="geometry">
                        <mxPoint y="-39" as="offset"/>
                    </mxGeometry>
                </mxCell>
                <mxCell id="_zO412civxkj6S0ELgT4-49" value="&lt;font color=&quot;#3333ff&quot;&gt;batch_load_L3()&lt;/font&gt;" style="sketch=0;outlineConnect=0;fontColor=#232F3E;gradientColor=none;fillColor=#3333FF;strokeColor=none;dashed=0;verticalLabelPosition=bottom;verticalAlign=top;align=center;html=1;fontSize=12;fontStyle=0;aspect=fixed;pointerEvents=1;shape=mxgraph.aws4.item;" parent="1" vertex="1">
                    <mxGeometry x="720" y="661" width="80" height="80" as="geometry"/>
                </mxCell>
                <mxCell id="_zO412civxkj6S0ELgT4-60" value="INSERT TO" style="edgeStyle=none;html=1;fontColor=#3333FF;" parent="1" source="_zO412civxkj6S0ELgT4-55" target="_zO412civxkj6S0ELgT4-9" edge="1">
                    <mxGeometry relative="1" as="geometry">
                        <mxPoint x="560" y="319.9999999999998" as="targetPoint"/>
                        <Array as="points">
                            <mxPoint x="560" y="120"/>
                        </Array>
                    </mxGeometry>
                </mxCell>
                <mxCell id="_zO412civxkj6S0ELgT4-67" style="edgeStyle=none;html=1;entryX=1.125;entryY=0.5;entryDx=0;entryDy=0;entryPerimeter=0;fontColor=#3333FF;" parent="1" source="_zO412civxkj6S0ELgT4-55" target="_zO412civxkj6S0ELgT4-49" edge="1">
                    <mxGeometry relative="1" as="geometry">
                        <Array as="points">
                            <mxPoint x="920" y="120"/>
                            <mxPoint x="920" y="701"/>
                        </Array>
                    </mxGeometry>
                </mxCell>
                <mxCell id="_zO412civxkj6S0ELgT4-68" value="NOTIFY WHEN DONE OR FAILE" style="edgeLabel;html=1;align=center;verticalAlign=middle;resizable=0;points=[];fontColor=#3333FF;" parent="_zO412civxkj6S0ELgT4-67" vertex="1" connectable="0">
                    <mxGeometry x="0.2027" relative="1" as="geometry">
                        <mxPoint y="-64" as="offset"/>
                    </mxGeometry>
                </mxCell>
                <mxCell id="_zO412civxkj6S0ELgT4-55" value="&lt;font color=&quot;#3333ff&quot;&gt;fn_load_L3_loagic()&lt;/font&gt;" style="sketch=0;outlineConnect=0;fontColor=#232F3E;gradientColor=none;fillColor=#3333FF;strokeColor=none;dashed=0;verticalLabelPosition=bottom;verticalAlign=top;align=center;html=1;fontSize=12;fontStyle=0;aspect=fixed;pointerEvents=1;shape=mxgraph.aws4.item;" parent="1" vertex="1">
                    <mxGeometry x="640" y="80" width="80" height="80" as="geometry"/>
                </mxCell>
                <mxCell id="_zO412civxkj6S0ELgT4-76" style="edgeStyle=none;html=1;entryX=0.5;entryY=0;entryDx=0;entryDy=0;entryPerimeter=0;fontColor=#3333FF;" parent="1" source="_zO412civxkj6S0ELgT4-70" target="_zO412civxkj6S0ELgT4-74" edge="1">
                    <mxGeometry relative="1" as="geometry"/>
                </mxCell>
                <mxCell id="_zO412civxkj6S0ELgT4-70" value="&lt;font color=&quot;#3333ff&quot;&gt;trigger batch_loadL3__status&lt;/font&gt;" style="sketch=0;outlineConnect=0;fontColor=#232F3E;gradientColor=none;fillColor=#3333FF;strokeColor=none;dashed=0;verticalLabelPosition=bottom;verticalAlign=top;align=center;html=1;fontSize=12;fontStyle=0;aspect=fixed;pointerEvents=1;shape=mxgraph.aws4.item;" parent="1" vertex="1">
                    <mxGeometry x="1000" y="501" width="80" height="80" as="geometry"/>
                </mxCell>
                <mxCell id="_zO412civxkj6S0ELgT4-74" value="" style="sketch=0;points=[[0,0,0],[0.25,0,0],[0.5,0,0],[0.75,0,0],[1,0,0],[0,1,0],[0.25,1,0],[0.5,1,0],[0.75,1,0],[1,1,0],[0,0.25,0],[0,0.5,0],[0,0.75,0],[1,0.25,0],[1,0.5,0],[1,0.75,0]];outlineConnect=0;fontColor=#232F3E;gradientColor=#F78E04;gradientDirection=north;fillColor=#D05C17;strokeColor=#ffffff;dashed=0;verticalLabelPosition=bottom;verticalAlign=top;align=center;html=1;fontSize=12;fontStyle=0;aspect=fixed;shape=mxgraph.aws4.resourceIcon;resIcon=mxgraph.aws4.lambda;" parent="1" vertex="1">
                    <mxGeometry x="1000" y="880" width="80" height="80" as="geometry"/>
                </mxCell>
            </root>
        </mxGraphModel>
    </diagram>
</mxfile>
